
[url]http://www.imdb.com/title/tt0066434/[/url]

The human race has been relocated to a underground city located beneath the Earth's surface. In the underground city, the population are entertained by holographic TV which broadcasts sex and violence and robotic police force enforces the law. In the underground city, society controls all life, all citizens are drugged to control their emotions and their behavior and sex is a crime. Factory worker THX-1138 stops taking the drugs and he breaks the law when he finds himself falling in love with his room-mate LUH 3417 and is imprisoned when LUH 3417 is pregnant. Escaping from jail with illegal programmer SEN 5241 and a hologram named SRT, THX 1138 goes in search of LUH 3417 and escape to the surface, whilst being pursued by robotic policemen.


Subtitles: CROATIAN, ENGLISH, ENGLISH (hearing impared)

General
Complete name : THX.1138.1971.Directors.Cut.DVDRip.XviD.AC3-Atilla82.avi
Format : AVI
Format/Info : Audio Video Interleave
File size : 762 MiB
Duration : 1h 28mn
Overall bit rate : 1 206 Kbps
Writing application : VirtualDubMod 1.5.10.2 (build 2540/release)
Writing library : VirtualDubMod build 2540/release

Video
ID : 0
Format : MPEG-4 Visual
Format profile : Advanced Simple@L5
Format settings, BVOP : Yes
Format settings, QPel : No
Format settings, GMC : No warppoints
Format settings, Matrix : Default (H.263)
Codec ID : XVID
Codec ID/Hint : XviD
Duration : 1h 28mn
Bit rate : 1 069 Kbps
Width : 720 pixels
Height : 304 pixels
Display aspect ratio : 2.35
Frame rate : 23.976 fps
Resolution : 24 bits
Colorimetry : 4:2:0
Scan type : Progressive
Bits/(Pixel*Frame) : 0.204
Stream size : 675 MiB (89%)
Writing library : XviD 1.2.1 (UTC 2008-12-04)

Audio
ID : 1
Format : AC-3
Format/Info : Audio Coding 3
Codec ID : 2000
Duration : 1h 28mn
Bit rate mode : Constant
Bit rate : 128 Kbps
Channel(s) : 6 channels
Channel positions : Front: L C R, Surround: L R, LFE
Sampling rate : 48.0 KHz
Stream size : 80.9 MiB (11%)
Alignment : Split accross interleaves
Interleave, duration : 42 ms (1.00 video frame)
Interleave, preload duration : 500 ms